<?xml version="1.0" encoding="utf-8" standalone="no"?>
<!DOCTYPE svg PUBLIC "-//W3C//DTD SVG 1.1//EN"
  "http://www.w3.org/Graphics/SVG/1.1/DTD/svg11.dtd">
<!-- Created with matplotlib (https://matplotlib.org/) -->
<svg height="398pt" version="1.1" viewBox="0 0 520 398" width="520pt" xmlns="http://www.w3.org/2000/svg" xmlns:xlink="http://www.w3.org/1999/xlink">
 <defs>
  <style type="text/css">
*{stroke-linecap:butt;stroke-linejoin:round;}
  </style>
 </defs>
 <g id="figure_1">
  <g id="patch_1">
   <path d="M 0 398 
L 520 398 
L 520 0 
L 0 0 
z
" style="fill:#ffffff;"/>
  </g>
  <g id="axes_1">
   <g id="patch_2">
    <path d="M 30.525 331.561562 
L 509.2 331.561562 
L 509.2 11.777884 
L 30.525 11.777884 
z
" style="fill:#ffffff;"/>
   </g>
   <g id="matplotlib.axis_1">
    <g id="xtick_1">
     <g id="text_1">
      <!-- Canadian wheat -->
      <defs>
       <path d="M 64.40625 67.28125 
L 64.40625 56.890625 
Q 59.421875 61.53125 53.78125 63.8125 
Q 48.140625 66.109375 41.796875 66.109375 
Q 29.296875 66.109375 22.65625 58.46875 
Q 16.015625 50.828125 16.015625 36.375 
Q 16.015625 21.96875 22.65625 14.328125 
Q 29.296875 6.6875 41.796875 6.6875 
Q 48.140625 6.6875 53.78125 8.984375 
Q 59.421875 11.28125 64.40625 15.921875 
L 64.40625 5.609375 
Q 59.234375 2.09375 53.4375 0.328125 
Q 47.65625 -1.421875 41.21875 -1.421875 
Q 24.65625 -1.421875 15.125 8.703125 
Q 5.609375 18.84375 5.609375 36.375 
Q 5.609375 53.953125 15.125 64.078125 
Q 24.65625 74.21875 41.21875 74.21875 
Q 47.75 74.21875 53.53125 72.484375 
Q 59.328125 70.75 64.40625 67.28125 
z
" id="DejaVuSans-67"/>
       <path d="M 34.28125 27.484375 
Q 23.390625 27.484375 19.1875 25 
Q 14.984375 22.515625 14.984375 16.5 
Q 14.984375 11.71875 18.140625 8.90625 
Q 21.296875 6.109375 26.703125 6.109375 
Q 34.1875 6.109375 38.703125 11.40625 
Q 43.21875 16.703125 43.21875 25.484375 
L 43.21875 27.484375 
z
M 52.203125 31.203125 
L 52.203125 0 
L 43.21875 0 
L 43.21875 8.296875 
Q 40.140625 3.328125 35.546875 0.953125 
Q 30.953125 -1.421875 24.3125 -1.421875 
Q 15.921875 -1.421875 10.953125 3.296875 
Q 6 8.015625 6 15.921875 
Q 6 25.140625 12.171875 29.828125 
Q 18.359375 34.515625 30.609375 34.515625 
L 43.21875 34.515625 
L 43.21875 35.40625 
Q 43.21875 41.609375 39.140625 45 
Q 35.0625 48.390625 27.6875 48.390625 
Q 23 48.390625 18.546875 47.265625 
Q 14.109375 46.140625 10.015625 43.890625 
L 10.015625 52.203125 
Q 14.9375 54.109375 19.578125 55.046875 
Q 24.21875 56 28.609375 56 
Q 40.484375 56 46.34375 49.84375 
Q 52.203125 43.703125 52.203125 31.203125 
z
" id="DejaVuSans-97"/>
       <path d="M 54.890625 33.015625 
L 54.890625 0 
L 45.90625 0 
L 45.90625 32.71875 
Q 45.90625 40.484375 42.875 44.328125 
Q 39.84375 48.1875 33.796875 48.1875 
Q 26.515625 48.1875 22.3125 43.546875 
Q 18.109375 38.921875 18.109375 30.90625 
L 18.109375 0 
L 9.078125 0 
L 9.078125 54.6875 
L 18.109375 54.6875 
L 18.109375 46.1875 
Q 21.34375 51.125 25.703125 53.5625 
Q 30.078125 56 35.796875 56 
Q 45.21875 56 50.046875 50.171875 
Q 54.890625 44.34375 54.890625 33.015625 
z
" id="DejaVuSans-110"/>
       <path d="M 45.40625 46.390625 
L 45.40625 75.984375 
L 54.390625 75.984375 
L 54.390625 0 
L 45.40625 0 
L 45.40625 8.203125 
Q 42.578125 3.328125 38.25 0.953125 
Q 33.9375 -1.421875 27.875 -1.421875 
Q 17.96875 -1.421875 11.734375 6.484375 
Q 5.515625 14.40625 5.515625 27.296875 
Q 5.515625 40.1875 11.734375 48.09375 
Q 17.96875 56 27.875 56 
Q 33.9375 56 38.25 53.625 
Q 42.578125 51.265625 45.40625 46.390625 
z
M 14.796875 27.296875 
Q 14.796875 17.390625 18.875 11.75 
Q 22.953125 6.109375 30.078125 6.109375 
Q 37.203125 6.109375 41.296875 11.75 
Q 45.40625 17.390625 45.40625 27.296875 
Q 45.40625 37.203125 41.296875 42.84375 
Q 37.203125 48.484375 30.078125 48.484375 
Q 22.953125 48.484375 18.875 42.84375 
Q 14.796875 37.203125 14.796875 27.296875 
z
" id="DejaVuSans-100"/>
       <path d="M 9.421875 54.6875 
L 18.40625 54.6875 
L 18.40625 0 
L 9.421875 0 
z
M 9.421875 75.984375 
L 18.40625 75.984375 
L 18.40625 64.59375 
L 9.421875 64.59375 
z
" id="DejaVuSans-105"/>
       <path id="DejaVuSans-32"/>
       <path d="M 4.203125 54.6875 
L 13.1875 54.6875 
L 24.421875 12.015625 
L 35.59375 54.6875 
L 46.1875 54.6875 
L 57.421875 12.015625 
L 68.609375 54.6875 
L 77.59375 54.6875 
L 63.28125 0 
L 52.6875 0 
L 40.921875 44.828125 
L 29.109375 0 
L 18.5 0 
z
" id="DejaVuSans-119"/>
       <path d="M 54.890625 33.015625 
L 54.890625 0 
L 45.90625 0 
L 45.90625 32.71875 
Q 45.90625 40.484375 42.875 44.328125 
Q 39.84375 48.1875 33.796875 48.1875 
Q 26.515625 48.1875 22.3125 43.546875 
Q 18.109375 38.921875 18.109375 30.90625 
L 18.109375 0 
L 9.078125 0 
L 9.078125 75.984375 
L 18.109375 75.984375 
L 18.109375 46.1875 
Q 21.34375 51.125 25.703125 53.5625 
Q 30.078125 56 35.796875 56 
Q 45.21875 56 50.046875 50.171875 
Q 54.890625 44.34375 54.890625 33.015625 
z
" id="DejaVuSans-104"/>
       <path d="M 56.203125 29.59375 
L 56.203125 25.203125 
L 14.890625 25.203125 
Q 15.484375 15.921875 20.484375 11.0625 
Q 25.484375 6.203125 34.421875 6.203125 
Q 39.59375 6.203125 44.453125 7.46875 
Q 49.3125 8.734375 54.109375 11.28125 
L 54.109375 2.78125 
Q 49.265625 0.734375 44.1875 -0.34375 
Q 39.109375 -1.421875 33.890625 -1.421875 
Q 20.796875 -1.421875 13.15625 6.1875 
Q 5.515625 13.8125 5.515625 26.8125 
Q 5.515625 40.234375 12.765625 48.109375 
Q 20.015625 56 32.328125 56 
Q 43.359375 56 49.78125 48.890625 
Q 56.203125 41.796875 56.203125 29.59375 
z
M 47.21875 32.234375 
Q 47.125 39.59375 43.09375 43.984375 
Q 39.0625 48.390625 32.421875 48.390625 
Q 24.90625 48.390625 20.390625 44.140625 
Q 15.875 39.890625 15.1875 32.171875 
z
" id="DejaVuSans-101"/>
       <path d="M 18.3125 70.21875 
L 18.3125 54.6875 
L 36.8125 54.6875 
L 36.8125 47.703125 
L 18.3125 47.703125 
L 18.3125 18.015625 
Q 18.3125 11.328125 20.140625 9.421875 
Q 21.96875 7.515625 27.59375 7.515625 
L 36.8125 7.515625 
L 36.8125 0 
L 27.59375 0 
Q 17.1875 0 13.234375 3.875 
Q 9.28125 7.765625 9.28125 18.015625 
L 9.28125 47.703125 
L 2.6875 47.703125 
L 2.6875 54.6875 
L 9.28125 54.6875 
L 9.28125 70.21875 
z
" id="DejaVuSans-116"/>
      </defs>
      <g transform="translate(37.879137 387.2)rotate(-90)scale(0.06 -0.06)">
       <use xlink:href="#DejaVuSans-67"/>
       <use x="69.824219" xlink:href="#DejaVuSans-97"/>
       <use x="131.103516" xlink:href="#DejaVuSans-110"/>
       <use x="194.482422" xlink:href="#DejaVuSans-97"/>
       <use x="255.761719" xlink:href="#DejaVuSans-100"/>
       <use x="319.238281" xlink:href="#DejaVuSans-105"/>
       <use x="347.021484" xlink:href="#DejaVuSans-97"/>
       <use x="408.300781" xlink:href="#DejaVuSans-110"/>
       <use x="471.679688" xlink:href="#DejaVuSans-32"/>
       <use x="503.466797" xlink:href="#DejaVuSans-119"/>
       <use x="585.253906" xlink:href="#DejaVuSans-104"/>
       <use x="648.632812" xlink:href="#DejaVuSans-101"/>
       <use x="710.15625" xlink:href="#DejaVuSans-97"/>
       <use x="771.435547" xlink:href="#DejaVuSans-116"/>
      </g>
     </g>
    </g>
    <g id="xtick_2">
     <g id="text_2">
      <!-- Canadian wheat -->
      <g transform="translate(49.276161 387.2)rotate(-90)scale(0.06 -0.06)">
       <use xlink:href="#DejaVuSans-67"/>
       <use x="69.824219" xlink:href="#DejaVuSans-97"/>
       <use x="131.103516" xlink:href="#DejaVuSans-110"/>
       <use x="194.482422" xlink:href="#DejaVuSans-97"/>
       <use x="255.761719" xlink:href="#DejaVuSans-100"/>
       <use x="319.238281" xlink:href="#DejaVuSans-105"/>
       <use x="347.021484" xlink:href="#DejaVuSans-97"/>
       <use x="408.300781" xlink:href="#DejaVuSans-110"/>
       <use x="471.679688" xlink:href="#DejaVuSans-32"/>
       <use x="503.466797" xlink:href="#DejaVuSans-119"/>
       <use x="585.253906" xlink:href="#DejaVuSans-104"/>
       <use x="648.632812" xlink:href="#DejaVuSans-101"/>
       <use x="710.15625" xlink:href="#DejaVuSans-97"/>
       <use x="771.435547" xlink:href="#DejaVuSans-116"/>
      </g>
     </g>
    </g>
    <g id="xtick_3">
     <g id="text_3">
      <!-- Canadian wheat -->
      <g transform="translate(60.673185 387.2)rotate(-90)scale(0.06 -0.06)">
       <use xlink:href="#DejaVuSans-67"/>
       <use x="69.824219" xlink:href="#DejaVuSans-97"/>
       <use x="131.103516" xlink:href="#DejaVuSans-110"/>
       <use x="194.482422" xlink:href="#DejaVuSans-97"/>
       <use x="255.761719" xlink:href="#DejaVuSans-100"/>
       <use x="319.238281" xlink:href="#DejaVuSans-105"/>
       <use x="347.021484" xlink:href="#DejaVuSans-97"/>
       <use x="408.300781" xlink:href="#DejaVuSans-110"/>
       <use x="471.679688" xlink:href="#DejaVuSans-32"/>
       <use x="503.466797" xlink:href="#DejaVuSans-119"/>
       <use x="585.253906" xlink:href="#DejaVuSans-104"/>
       <use x="648.632812" xlink:href="#DejaVuSans-101"/>
       <use x="710.15625" xlink:href="#DejaVuSans-97"/>
       <use x="771.435547" xlink:href="#DejaVuSans-116"/>
      </g>
     </g>
    </g>
    <g id="xtick_4">
     <g id="text_4">
      <!-- Canadian wheat -->
      <g transform="translate(72.070208 387.2)rotate(-90)scale(0.06 -0.06)">
       <use xlink:href="#DejaVuSans-67"/>
       <use x="69.824219" xlink:href="#DejaVuSans-97"/>
       <use x="131.103516" xlink:href="#DejaVuSans-110"/>
       <use x="194.482422" xlink:href="#DejaVuSans-97"/>
       <use x="255.761719" xlink:href="#DejaVuSans-100"/>
       <use x="319.238281" xlink:href="#DejaVuSans-105"/>
       <use x="347.021484" xlink:href="#DejaVuSans-97"/>
       <use x="408.300781" xlink:href="#DejaVuSans-110"/>
       <use x="471.679688" xlink:href="#DejaVuSans-32"/>
       <use x="503.466797" xlink:href="#DejaVuSans-119"/>
       <use x="585.253906" xlink:href="#DejaVuSans-104"/>
       <use x="648.632812" xlink:href="#DejaVuSans-101"/>
       <use x="710.15625" xlink:href="#DejaVuSans-97"/>
       <use x="771.435547" xlink:href="#DejaVuSans-116"/>
      </g>
     </g>
    </g>
    <g id="xtick_5">
     <g id="text_5">
      <!-- Canadian wheat -->
      <g transform="translate(83.467232 387.2)rotate(-90)scale(0.06 -0.06)">
       <use xlink:href="#DejaVuSans-67"/>
       <use x="69.824219" xlink:href="#DejaVuSans-97"/>
       <use x="131.103516" xlink:href="#DejaVuSans-110"/>
       <use x="194.482422" xlink:href="#DejaVuSans-97"/>
       <use x="255.761719" xlink:href="#DejaVuSans-100"/>
       <use x="319.238281" xlink:href="#DejaVuSans-105"/>
       <use x="347.021484" xlink:href="#DejaVuSans-97"/>
       <use x="408.300781" xlink:href="#DejaVuSans-110"/>
       <use x="471.679688" xlink:href="#DejaVuSans-32"/>
       <use x="503.466797" xlink:href="#DejaVuSans-119"/>
       <use x="585.253906" xlink:href="#DejaVuSans-104"/>
       <use x="648.632812" xlink:href="#DejaVuSans-101"/>
       <use x="710.15625" xlink:href="#DejaVuSans-97"/>
       <use x="771.435547" xlink:href="#DejaVuSans-116"/>
      </g>
     </g>
    </g>
    <g id="xtick_6">
     <g id="text_6">
      <!-- Canadian wheat -->
      <g transform="translate(94.864256 387.2)rotate(-90)scale(0.06 -0.06)">
       <use xlink:href="#DejaVuSans-67"/>
       <use x="69.824219" xlink:href="#DejaVuSans-97"/>
       <use x="131.103516" xlink:href="#DejaVuSans-110"/>
       <use x="194.482422" xlink:href="#DejaVuSans-97"/>
       <use x="255.761719" xlink:href="#DejaVuSans-100"/>
       <use x="319.238281" xlink:href="#DejaVuSans-105"/>
       <use x="347.021484" xlink:href="#DejaVuSans-97"/>
       <use x="408.300781" xlink:href="#DejaVuSans-110"/>
       <use x="471.679688" xlink:href="#DejaVuSans-32"/>
       <use x="503.466797" xlink:href="#DejaVuSans-119"/>
       <use x="585.253906" xlink:href="#DejaVuSans-104"/>
       <use x="648.632812" xlink:href="#DejaVuSans-101"/>
       <use x="710.15625" xlink:href="#DejaVuSans-97"/>
       <use x="771.435547" xlink:href="#DejaVuSans-116"/>
      </g>
     </g>
    </g>
    <g id="xtick_7">
     <g id="text_7">
      <!-- Canadian wheat -->
      <g transform="translate(106.26128 387.2)rotate(-90)scale(0.06 -0.06)">
       <use xlink:href="#DejaVuSans-67"/>
       <use x="69.824219" xlink:href="#DejaVuSans-97"/>
       <use x="131.103516" xlink:href="#DejaVuSans-110"/>
       <use x="194.482422" xlink:href="#DejaVuSans-97"/>
       <use x="255.761719" xlink:href="#DejaVuSans-100"/>
       <use x="319.238281" xlink:href="#DejaVuSans-105"/>
       <use x="347.021484" xlink:href="#DejaVuSans-97"/>
       <use x="408.300781" xlink:href="#DejaVuSans-110"/>
       <use x="471.679688" xlink:href="#DejaVuSans-32"/>
       <use x="503.466797" xlink:href="#DejaVuSans-119"/>
       <use x="585.253906" xlink:href="#DejaVuSans-104"/>
       <use x="648.632812" xlink:href="#DejaVuSans-101"/>
       <use x="710.15625" xlink:href="#DejaVuSans-97"/>
       <use x="771.435547" xlink:href="#DejaVuSans-116"/>
      </g>
     </g>
    </g>
    <g id="xtick_8">
     <g id="text_8">
      <!-- Canadian wheat -->
      <g transform="translate(117.658304 387.2)rotate(-90)scale(0.06 -0.06)">
       <use xlink:href="#DejaVuSans-67"/>
       <use x="69.824219" xlink:href="#DejaVuSans-97"/>
       <use x="131.103516" xlink:href="#DejaVuSans-110"/>
       <use x="194.482422" xlink:href="#DejaVuSans-97"/>
       <use x="255.761719" xlink:href="#DejaVuSans-100"/>
       <use x="319.238281" xlink:href="#DejaVuSans-105"/>
       <use x="347.021484" xlink:href="#DejaVuSans-97"/>
       <use x="408.300781" xlink:href="#DejaVuSans-110"/>
       <use x="471.679688" xlink:href="#DejaVuSans-32"/>
       <use x="503.466797" xlink:href="#DejaVuSans-119"/>
       <use x="585.253906" xlink:href="#DejaVuSans-104"/>
       <use x="648.632812" xlink:href="#DejaVuSans-101"/>
       <use x="710.15625" xlink:href="#DejaVuSans-97"/>
       <use x="771.435547" xlink:href="#DejaVuSans-116"/>
      </g>
     </g>
    </g>
    <g id="xtick_9">
     <g id="text_9">
      <!-- Canadian wheat -->
      <g transform="translate(129.055327 387.2)rotate(-90)scale(0.06 -0.06)">
       <use xlink:href="#DejaVuSans-67"/>
       <use x="69.824219" xlink:href="#DejaVuSans-97"/>
       <use x="131.103516" xlink:href="#DejaVuSans-110"/>
       <use x="194.482422" xlink:href="#DejaVuSans-97"/>
       <use x="255.761719" xlink:href="#DejaVuSans-100"/>
       <use x="319.238281" xlink:href="#DejaVuSans-105"/>
       <use x="347.021484" xlink:href="#DejaVuSans-97"/>
       <use x="408.300781" xlink:href="#DejaVuSans-110"/>
       <use x="471.679688" xlink:href="#DejaVuSans-32"/>
       <use x="503.466797" xlink:href="#DejaVuSans-119"/>
       <use x="585.253906" xlink:href="#DejaVuSans-104"/>
       <use x="648.632812" xlink:href="#DejaVuSans-101"/>
       <use x="710.15625" xlink:href="#DejaVuSans-97"/>
       <use x="771.435547" xlink:href="#DejaVuSans-116"/>
      </g>
     </g>
    </g>
    <g id="xtick_10">
     <g id="text_10">
      <!-- Kama wheat -->
      <defs>
       <path d="M 9.8125 72.90625 
L 19.671875 72.90625 
L 19.671875 42.09375 
L 52.390625 72.90625 
L 65.09375 72.90625 
L 28.90625 38.921875 
L 67.671875 0 
L 54.6875 0 
L 19.671875 35.109375 
L 19.671875 0 
L 9.8125 0 
z
" id="DejaVuSans-75"/>
       <path d="M 52 44.1875 
Q 55.375 50.25 60.0625 53.125 
Q 64.75 56 71.09375 56 
Q 79.640625 56 84.28125 50.015625 
Q 88.921875 44.046875 88.921875 33.015625 
L 88.921875 0 
L 79.890625 0 
L 79.890625 32.71875 
Q 79.890625 40.578125 77.09375 44.375 
Q 74.3125 48.1875 68.609375 48.1875 
Q 61.625 48.1875 57.5625 43.546875 
Q 53.515625 38.921875 53.515625 30.90625 
L 53.515625 0 
L 44.484375 0 
L 44.484375 32.71875 
Q 44.484375 40.625 41.703125 44.40625 
Q 38.921875 48.1875 33.109375 48.1875 
Q 26.21875 48.1875 22.15625 43.53125 
Q 18.109375 38.875 18.109375 30.90625 
L 18.109375 0 
L 9.078125 0 
L 9.078125 54.6875 
L 18.109375 54.6875 
L 18.109375 46.1875 
Q 21.1875 51.21875 25.484375 53.609375 
Q 29.78125 56 35.6875 56 
Q 41.65625 56 45.828125 52.96875 
Q 50 49.953125 52 44.1875 
z
" id="DejaVuSans-109"/>
      </defs>
      <g transform="translate(140.452351 375.926562)rotate(-90)scale(0.06 -0.06)">
       <use xlink:href="#DejaVuSans-75"/>
       <use x="63.826172" xlink:href="#DejaVuSans-97"/>
       <use x="125.105469" xlink:href="#DejaVuSans-109"/>
       <use x="222.517578" xlink:href="#DejaVuSans-97"/>
       <use x="283.796875" xlink:href="#DejaVuSans-32"/>
       <use x="315.583984" xlink:href="#DejaVuSans-119"/>
       <use x="397.371094" xlink:href="#DejaVuSans-104"/>
       <use x="460.75" xlink:href="#DejaVuSans-101"/>
       <use x="522.273438" xlink:href="#DejaVuSans-97"/>
       <use x="583.552734" xlink:href="#DejaVuSans-116"/>
      </g>
     </g>
    </g>
    <g id="xtick_11">
     <g id="text_11">
      <!-- Kama wheat -->
      <g transform="translate(151.849375 375.926562)rotate(-90)scale(0.06 -0.06)">
       <use xlink:href="#DejaVuSans-75"/>
       <use x="63.826172" xlink:href="#DejaVuSans-97"/>
       <use x="125.105469" xlink:href="#DejaVuSans-109"/>
       <use x="222.517578" xlink:href="#DejaVuSans-97"/>
       <use x="283.796875" xlink:href="#DejaVuSans-32"/>
       <use x="315.583984" xlink:href="#DejaVuSans-119"/>
       <use x="397.371094" xlink:href="#DejaVuSans-104"/>
       <use x="460.75" xlink:href="#DejaVuSans-101"/>
       <use x="522.273438" xlink:href="#DejaVuSans-97"/>
       <use x="583.552734" xlink:href="#DejaVuSans-116"/>
      </g>
     </g>
    </g>
    <g id="xtick_12">
     <g id="text_12">
      <!-- Canadian wheat -->
      <g transform="translate(163.246399 387.2)rotate(-90)scale(0.06 -0.06)">
       <use xlink:href="#DejaVuSans-67"/>
       <use x="69.824219" xlink:href="#DejaVuSans-97"/>
       <use x="131.103516" xlink:href="#DejaVuSans-110"/>
       <use x="194.482422" xlink:href="#DejaVuSans-97"/>
       <use x="255.761719" xlink:href="#DejaVuSans-100"/>
       <use x="319.238281" xlink:href="#DejaVuSans-105"/>
       <use x="347.021484" xlink:href="#DejaVuSans-97"/>
       <use x="408.300781" xlink:href="#DejaVuSans-110"/>
       <use x="471.679688" xlink:href="#DejaVuSans-32"/>
       <use x="503.466797" xlink:href="#DejaVuSans-119"/>
       <use x="585.253906" xlink:href="#DejaVuSans-104"/>
       <use x="648.632812" xlink:href="#DejaVuSans-101"/>
       <use x="710.15625" xlink:href="#DejaVuSans-97"/>
       <use x="771.435547" xlink:href="#DejaVuSans-116"/>
      </g>
     </g>
    </g>
    <g id="xtick_13">
     <g id="text_13">
      <!-- Kama wheat -->
      <g transform="translate(174.643423 375.926562)rotate(-90)scale(0.06 -0.06)">
       <use xlink:href="#DejaVuSans-75"/>
       <use x="63.826172" xlink:href="#DejaVuSans-97"/>
       <use x="125.105469" xlink:href="#DejaVuSans-109"/>
       <use x="222.517578" xlink:href="#DejaVuSans-97"/>
       <use x="283.796875" xlink:href="#DejaVuSans-32"/>
       <use x="315.583984" xlink:href="#DejaVuSans-119"/>
       <use x="397.371094" xlink:href="#DejaVuSans-104"/>
       <use x="460.75" xlink:href="#DejaVuSans-101"/>
       <use x="522.273438" xlink:href="#DejaVuSans-97"/>
       <use x="583.552734" xlink:href="#DejaVuSans-116"/>
      </g>
     </g>
    </g>
    <g id="xtick_14">
     <g id="text_14">
      <!-- Canadian wheat -->
      <g transform="translate(186.040446 387.2)rotate(-90)scale(0.06 -0.06)">
       <use xlink:href="#DejaVuSans-67"/>
       <use x="69.824219" xlink:href="#DejaVuSans-97"/>
       <use x="131.103516" xlink:href="#DejaVuSans-110"/>
       <use x="194.482422" xlink:href="#DejaVuSans-97"/>
       <use x="255.761719" xlink:href="#DejaVuSans-100"/>
       <use x="319.238281" xlink:href="#DejaVuSans-105"/>
       <use x="347.021484" xlink:href="#DejaVuSans-97"/>
       <use x="408.300781" xlink:href="#DejaVuSans-110"/>
       <use x="471.679688" xlink:href="#DejaVuSans-32"/>
       <use x="503.466797" xlink:href="#DejaVuSans-119"/>
       <use x="585.253906" xlink:href="#DejaVuSans-104"/>
       <use x="648.632812" xlink:href="#DejaVuSans-101"/>
       <use x="710.15625" xlink:href="#DejaVuSans-97"/>
       <use x="771.435547" xlink:href="#DejaVuSans-116"/>
      </g>
     </g>
    </g>
    <g id="xtick_15">
     <g id="text_15">
      <!-- Canadian wheat -->
      <g transform="translate(197.43747 387.2)rotate(-90)scale(0.06 -0.06)">
       <use xlink:href="#DejaVuSans-67"/>
       <use x="69.824219" xlink:href="#DejaVuSans-97"/>
       <use x="131.103516" xlink:href="#DejaVuSans-110"/>
       <use x="194.482422" xlink:href="#DejaVuSans-97"/>
       <use x="255.761719" xlink:href="#DejaVuSans-100"/>
       <use x="319.238281" xlink:href="#DejaVuSans-105"/>
       <use x="347.021484" xlink:href="#DejaVuSans-97"/>
       <use x="408.300781" xlink:href="#DejaVuSans-110"/>
       <use x="471.679688" xlink:href="#DejaVuSans-32"/>
       <use x="503.466797" xlink:href="#DejaVuSans-119"/>
       <use x="585.253906" xlink:href="#DejaVuSans-104"/>
       <use x="648.632812" xlink:href="#DejaVuSans-101"/>
       <use x="710.15625" xlink:href="#DejaVuSans-97"/>
       <use x="771.435547" xlink:href="#DejaVuSans-116"/>
      </g>
     </g>
    </g>
    <g id="xtick_16">
     <g id="text_16">
      <!-- Canadian wheat -->
      <g transform="translate(208.834494 387.2)rotate(-90)scale(0.06 -0.06)">
       <use xlink:href="#DejaVuSans-67"/>
       <use x="69.824219" xlink:href="#DejaVuSans-97"/>
       <use x="131.103516" xlink:href="#DejaVuSans-110"/>
       <use x="194.482422" xlink:href="#DejaVuSans-97"/>
       <use x="255.761719" xlink:href="#DejaVuSans-100"/>
       <use x="319.238281" xlink:href="#DejaVuSans-105"/>
       <use x="347.021484" xlink:href="#DejaVuSans-97"/>
       <use x="408.300781" xlink:href="#DejaVuSans-110"/>
       <use x="471.679688" xlink:href="#DejaVuSans-32"/>
       <use x="503.466797" xlink:href="#DejaVuSans-119"/>
       <use x="585.253906" xlink:href="#DejaVuSans-104"/>
       <use x="648.632812" xlink:href="#DejaVuSans-101"/>
       <use x="710.15625" xlink:href="#DejaVuSans-97"/>
       <use x="771.435547" xlink:href="#DejaVuSans-116"/>
      </g>
     </g>
    </g>
    <g id="xtick_17">
     <g id="text_17">
      <!-- Canadian wheat -->
      <g transform="translate(220.231518 387.2)rotate(-90)scale(0.06 -0.06)">
       <use xlink:href="#DejaVuSans-67"/>
       <use x="69.824219" xlink:href="#DejaVuSans-97"/>
       <use x="131.103516" xlink:href="#DejaVuSans-110"/>
       <use x="194.482422" xlink:href="#DejaVuSans-97"/>
       <use x="255.761719" xlink:href="#DejaVuSans-100"/>
       <use x="319.238281" xlink:href="#DejaVuSans-105"/>
       <use x="347.021484" xlink:href="#DejaVuSans-97"/>
       <use x="408.300781" xlink:href="#DejaVuSans-110"/>
       <use x="471.679688" xlink:href="#DejaVuSans-32"/>
       <use x="503.466797" xlink:href="#DejaVuSans-119"/>
       <use x="585.253906" xlink:href="#DejaVuSans-104"/>
       <use x="648.632812" xlink:href="#DejaVuSans-101"/>
       <use x="710.15625" xlink:href="#DejaVuSans-97"/>
       <use x="771.435547" xlink:href="#DejaVuSans-116"/>
      </g>
     </g>
    </g>
    <g id="xtick_18">
     <g id="text_18">
      <!-- Rosa wheat -->
      <defs>
       <path d="M 44.390625 34.1875 
Q 47.5625 33.109375 50.5625 29.59375 
Q 53.5625 26.078125 56.59375 19.921875 
L 66.609375 0 
L 56 0 
L 46.6875 18.703125 
Q 43.0625 26.03125 39.671875 28.421875 
Q 36.28125 30.8125 30.421875 30.8125 
L 19.671875 30.8125 
L 19.671875 0 
L 9.8125 0 
L 9.8125 72.90625 
L 32.078125 72.90625 
Q 44.578125 72.90625 50.734375 67.671875 
Q 56.890625 62.453125 56.890625 51.90625 
Q 56.890625 45.015625 53.6875 40.46875 
Q 50.484375 35.9375 44.390625 34.1875 
z
M 19.671875 64.796875 
L 19.671875 38.921875 
L 32.078125 38.921875 
Q 39.203125 38.921875 42.84375 42.21875 
Q 46.484375 45.515625 46.484375 51.90625 
Q 46.484375 58.296875 42.84375 61.546875 
Q 39.203125 64.796875 32.078125 64.796875 
z
" id="DejaVuSans-82"/>
       <path d="M 30.609375 48.390625 
Q 23.390625 48.390625 19.1875 42.75 
Q 14.984375 37.109375 14.984375 27.296875 
Q 14.984375 17.484375 19.15625 11.84375 
Q 23.34375 6.203125 30.609375 6.203125 
Q 37.796875 6.203125 41.984375 11.859375 
Q 46.1875 17.53125 46.1875 27.296875 
Q 46.1875 37.015625 41.984375 42.703125 
Q 37.796875 48.390625 30.609375 48.390625 
z
M 30.609375 56 
Q 42.328125 56 49.015625 48.375 
Q 55.71875 40.765625 55.71875 27.296875 
Q 55.71875 13.875 49.015625 6.21875 
Q 42.328125 -1.421875 30.609375 -1.421875 
Q 18.84375 -1.421875 12.171875 6.21875 
Q 5.515625 13.875 5.515625 27.296875 
Q 5.515625 40.765625 12.171875 48.375 
Q 18.84375 56 30.609375 56 
z
" id="DejaVuSans-111"/>
       <path d="M 44.28125 53.078125 
L 44.28125 44.578125 
Q 40.484375 46.53125 36.375 47.5 
Q 32.28125 48.484375 27.875 48.484375 
Q 21.1875 48.484375 17.84375 46.4375 
Q 14.5 44.390625 14.5 40.28125 
Q 14.5 37.15625 16.890625 35.375 
Q 19.28125 33.59375 26.515625 31.984375 
L 29.59375 31.296875 
Q 39.15625 29.25 43.1875 25.515625 
Q 47.21875 21.78125 47.21875 15.09375 
Q 47.21875 7.46875 41.1875 3.015625 
Q 35.15625 -1.421875 24.609375 -1.421875 
Q 20.21875 -1.421875 15.453125 -0.5625 
Q 10.6875 0.296875 5.421875 2 
L 5.421875 11.28125 
Q 10.40625 8.6875 15.234375 7.390625 
Q 20.0625 6.109375 24.8125 6.109375 
Q 31.15625 6.109375 34.5625 8.28125 
Q 37.984375 10.453125 37.984375 14.40625 
Q 37.984375 18.0625 35.515625 20.015625 
Q 33.0625 21.96875 24.703125 23.78125 
L 21.578125 24.515625 
Q 13.234375 26.265625 9.515625 29.90625 
Q 5.8125 33.546875 5.8125 39.890625 
Q 5.8125 47.609375 11.28125 51.796875 
Q 16.75 56 26.8125 56 
Q 31.78125 56 36.171875 55.265625 
Q 40.578125 54.546875 44.28125 53.078125 
z
" id="DejaVuSans-115"/>
      </defs>
      <g transform="translate(231.628542 373.271563)rotate(-90)scale(0.06 -0.06)">
       <use xlink:href="#DejaVuSans-82"/>
       <use x="64.982422" xlink:href="#DejaVuSans-111"/>
       <use x="126.164062" xlink:href="#DejaVuSans-115"/>
       <use x="178.263672" xlink:href="#DejaVuSans-97"/>
       <use x="239.542969" xlink:href="#DejaVuSans-32"/>
       <use x="271.330078" xlink:href="#DejaVuSans-119"/>
       <use x="353.117188" xlink:href="#DejaVuSans-104"/>
       <use x="416.496094" xlink:href="#DejaVuSans-101"/>
       <use x="478.019531" xlink:href="#DejaVuSans-97"/>
       <use x="539.298828" xlink:href="#DejaVuSans-116"/>
      </g>
     </g>
    </g>
    <g id="xtick_19">
     <g id="text_19">
      <!-- Rosa wheat -->
      <g transform="translate(243.025565 373.271563)rotate(-90)scale(0.06 -0.06)">
       <use xlink:href="#DejaVuSans-82"/>
       <use x="64.982422" xlink:href="#DejaVuSans-111"/>
       <use x="126.164062" xlink:href="#DejaVuSans-115"/>
       <use x="178.263672" xlink:href="#DejaVuSans-97"/>
       <use x="239.542969" xlink:href="#DejaVuSans-32"/>
       <use x="271.330078" xlink:href="#DejaVuSans-119"/>
       <use x="353.117188" xlink:href="#DejaVuSans-104"/>
       <use x="416.496094" xlink:href="#DejaVuSans-101"/>
       <use x="478.019531" xlink:href="#DejaVuSans-97"/>
       <use x="539.298828" xlink:href="#DejaVuSans-116"/>
      </g>
     </g>
    </g>
    <g id="xtick_20">
     <g id="text_20">
      <!-- Rosa wheat -->
      <g transform="translate(254.422589 373.271563)rotate(-90)scale(0.06 -0.06)">
       <use xlink:href="#DejaVuSans-82"/>
       <use x="64.982422" xlink:href="#DejaVuSans-111"/>
       <use x="126.164062" xlink:href="#DejaVuSans-115"/>
       <use x="178.263672" xlink:href="#DejaVuSans-97"/>
       <use x="239.542969" xlink:href="#DejaVuSans-32"/>
       <use x="271.330078" xlink:href="#DejaVuSans-119"/>
       <use x="353.117188" xlink:href="#DejaVuSans-104"/>
       <use x="416.496094" xlink:href="#DejaVuSans-101"/>
       <use x="478.019531" xlink:href="#DejaVuSans-97"/>
       <use x="539.298828" xlink:href="#DejaVuSans-116"/>
      </g>
     </g>
    </g>
    <g id="xtick_21">
     <g id="text_21">
      <!-- Rosa wheat -->
      <g transform="translate(265.819613 373.271563)rotate(-90)scale(0.06 -0.06)">
       <use xlink:href="#DejaVuSans-82"/>
       <use x="64.982422" xlink:href="#DejaVuSans-111"/>
       <use x="126.164062" xlink:href="#DejaVuSans-115"/>
       <use x="178.263672" xlink:href="#DejaVuSans-97"/>
       <use x="239.542969" xlink:href="#DejaVuSans-32"/>
       <use x="271.330078" xlink:href="#DejaVuSans-119"/>
       <use x="353.117188" xlink:href="#DejaVuSans-104"/>
       <use x="416.496094" xlink:href="#DejaVuSans-101"/>
       <use x="478.019531" xlink:href="#DejaVuSans-97"/>
       <use x="539.298828" xlink:href="#DejaVuSans-116"/>
      </g>
     </g>
    </g>
    <g id="xtick_22">
     <g id="text_22">
      <!-- Rosa wheat -->
      <g transform="translate(277.216637 373.271563)rotate(-90)scale(0.06 -0.06)">
       <use xlink:href="#DejaVuSans-82"/>
       <use x="64.982422" xlink:href="#DejaVuSans-111"/>
       <use x="126.164062" xlink:href="#DejaVuSans-115"/>
       <use x="178.263672" xlink:href="#DejaVuSans-97"/>
       <use x="239.542969" xlink:href="#DejaVuSans-32"/>
       <use x="271.330078" xlink:href="#DejaVuSans-119"/>
       <use x="353.117188" xlink:href="#DejaVuSans-104"/>
       <use x="416.496094" xlink:href="#DejaVuSans-101"/>
       <use x="478.019531" xlink:href="#DejaVuSans-97"/>
       <use x="539.298828" xlink:href="#DejaVuSans-116"/>
      </g>
     </g>
    </g>
    <g id="xtick_23">
     <g id="text_23">
      <!-- Rosa wheat -->
      <g transform="translate(288.613661 373.271563)rotate(-90)scale(0.06 -0.06)">
       <use xlink:href="#DejaVuSans-82"/>
       <use x="64.982422" xlink:href="#DejaVuSans-111"/>
       <use x="126.164062" xlink:href="#DejaVuSans-115"/>
       <use x="178.263672" xlink:href="#DejaVuSans-97"/>
       <use x="239.542969" xlink:href="#DejaVuSans-32"/>
       <use x="271.330078" xlink:href="#DejaVuSans-119"/>
       <use x="353.117188" xlink:href="#DejaVuSans-104"/>
       <use x="416.496094" xlink:href="#DejaVuSans-101"/>
       <use x="478.019531" xlink:href="#DejaVuSans-97"/>
       <use x="539.298828" xlink:href="#DejaVuSans-116"/>
      </g>
     </g>
    </g>
    <g id="xtick_24">
     <g id="text_24">
      <!-- Rosa wheat -->
      <g transform="translate(300.010685 373.271563)rotate(-90)scale(0.06 -0.06)">
       <use xlink:href="#DejaVuSans-82"/>
       <use x="64.982422" xlink:href="#DejaVuSans-111"/>
       <use x="126.164062" xlink:href="#DejaVuSans-115"/>
       <use x="178.263672" xlink:href="#DejaVuSans-97"/>
       <use x="239.542969" xlink:href="#DejaVuSans-32"/>
       <use x="271.330078" xlink:href="#DejaVuSans-119"/>
       <use x="353.117188" xlink:href="#DejaVuSans-104"/>
       <use x="416.496094" xlink:href="#DejaVuSans-101"/>
       <use x="478.019531" xlink:href="#DejaVuSans-97"/>
       <use x="539.298828" xlink:href="#DejaVuSans-116"/>
      </g>
     </g>
    </g>
    <g id="xtick_25">
     <g id="text_25">
      <!-- Rosa wheat -->
      <g transform="translate(311.407708 373.271563)rotate(-90)scale(0.06 -0.06)">
       <use xlink:href="#DejaVuSans-82"/>
       <use x="64.982422" xlink:href="#DejaVuSans-111"/>
       <use x="126.164062" xlink:href="#DejaVuSans-115"/>
       <use x="178.263672" xlink:href="#DejaVuSans-97"/>
       <use x="239.542969" xlink:href="#DejaVuSans-32"/>
       <use x="271.330078" xlink:href="#DejaVuSans-119"/>
       <use x="353.117188" xlink:href="#DejaVuSans-104"/>
       <use x="416.496094" xlink:href="#DejaVuSans-101"/>
       <use x="478.019531" xlink:href="#DejaVuSans-97"/>
       <use x="539.298828" xlink:href="#DejaVuSans-116"/>
      </g>
     </g>
    </g>
    <g id="xtick_26">
     <g id="text_26">
      <!-- Rosa wheat -->
      <g transform="translate(322.804732 373.271563)rotate(-90)scale(0.06 -0.06)">
       <use xlink:href="#DejaVuSans-82"/>
       <use x="64.982422" xlink:href="#DejaVuSans-111"/>
       <use x="126.164062" xlink:href="#DejaVuSans-115"/>
       <use x="178.263672" xlink:href="#DejaVuSans-97"/>
       <use x="239.542969" xlink:href="#DejaVuSans-32"/>
       <use x="271.330078" xlink:href="#DejaVuSans-119"/>
       <use x="353.117188" xlink:href="#DejaVuSans-104"/>
       <use x="416.496094" xlink:href="#DejaVuSans-101"/>
       <use x="478.019531" xlink:href="#DejaVuSans-97"/>
       <use x="539.298828" xlink:href="#DejaVuSans-116"/>
      </g>
     </g>
    </g>
    <g id="xtick_27">
     <g id="text_27">
      <!-- Rosa wheat -->
      <g transform="translate(334.201756 373.271563)rotate(-90)scale(0.06 -0.06)">
       <use xlink:href="#DejaVuSans-82"/>
       <use x="64.982422" xlink:href="#DejaVuSans-111"/>
       <use x="126.164062" xlink:href="#DejaVuSans-115"/>
       <use x="178.263672" xlink:href="#DejaVuSans-97"/>
       <use x="239.542969" xlink:href="#DejaVuSans-32"/>
       <use x="271.330078" xlink:href="#DejaVuSans-119"/>
       <use x="353.117188" xlink:href="#DejaVuSans-104"/>
       <use x="416.496094" xlink:href="#DejaVuSans-101"/>
       <use x="478.019531" xlink:href="#DejaVuSans-97"/>
       <use x="539.298828" xlink:href="#DejaVuSans-116"/>
      </g>
     </g>
    </g>
    <g id="xtick_28">
     <g id="text_28">
      <!-- Rosa wheat -->
      <g transform="translate(345.59878 373.271563)rotate(-90)scale(0.06 -0.06)">
       <use xlink:href="#DejaVuSans-82"/>
       <use x="64.982422" xlink:href="#DejaVuSans-111"/>
       <use x="126.164062" xlink:href="#DejaVuSans-115"/>
       <use x="178.263672" xlink:href="#DejaVuSans-97"/>
       <use x="239.542969" xlink:href="#DejaVuSans-32"/>
       <use x="271.330078" xlink:href="#DejaVuSans-119"/>
       <use x="353.117188" xlink:href="#DejaVuSans-104"/>
       <use x="416.496094" xlink:href="#DejaVuSans-101"/>
       <use x="478.019531" xlink:href="#DejaVuSans-97"/>
       <use x="539.298828" xlink:href="#DejaVuSans-116"/>
      </g>
     </g>
    </g>
    <g id="xtick_29">
     <g id="text_29">
      <!-- Rosa wheat -->
      <g transform="translate(356.995804 373.271563)rotate(-90)scale(0.06 -0.06)">
       <use xlink:href="#DejaVuSans-82"/>
       <use x="64.982422" xlink:href="#DejaVuSans-111"/>
       <use x="126.164062" xlink:href="#DejaVuSans-115"/>
       <use x="178.263672" xlink:href="#DejaVuSans-97"/>
       <use x="239.542969" xlink:href="#DejaVuSans-32"/>
       <use x="271.330078" xlink:href="#DejaVuSans-119"/>
       <use x="353.117188" xlink:href="#DejaVuSans-104"/>
       <use x="416.496094" xlink:href="#DejaVuSans-101"/>
       <use x="478.019531" xlink:href="#DejaVuSans-97"/>
       <use x="539.298828" xlink:href="#DejaVuSans-116"/>
      </g>
     </g>
    </g>
    <g id="xtick_30">
     <g id="text_30">
      <!-- Rosa wheat -->
      <g transform="translate(368.392827 373.271563)rotate(-90)scale(0.06 -0.06)">
       <use xlink:href="#DejaVuSans-82"/>
       <use x="64.982422" xlink:href="#DejaVuSans-111"/>
       <use x="126.164062" xlink:href="#DejaVuSans-115"/>
       <use x="178.263672" xlink:href="#DejaVuSans-97"/>
       <use x="239.542969" xlink:href="#DejaVuSans-32"/>
       <use x="271.330078" xlink:href="#DejaVuSans-119"/>
       <use x="353.117188" xlink:href="#DejaVuSans-104"/>
       <use x="416.496094" xlink:href="#DejaVuSans-101"/>
       <use x="478.019531" xlink:href="#DejaVuSans-97"/>
       <use x="539.298828" xlink:href="#DejaVuSans-116"/>
      </g>
     </g>
    </g>
    <g id="xtick_31">
     <g id="text_31">
      <!-- Rosa wheat -->
      <g transform="translate(379.789851 373.271563)rotate(-90)scale(0.06 -0.06)">
       <use xlink:href="#DejaVuSans-82"/>
       <use x="64.982422" xlink:href="#DejaVuSans-111"/>
       <use x="126.164062" xlink:href="#DejaVuSans-115"/>
       <use x="178.263672" xlink:href="#DejaVuSans-97"/>
       <use x="239.542969" xlink:href="#DejaVuSans-32"/>
       <use x="271.330078" xlink:href="#DejaVuSans-119"/>
       <use x="353.117188" xlink:href="#DejaVuSans-104"/>
       <use x="416.496094" xlink:href="#DejaVuSans-101"/>
       <use x="478.019531" xlink:href="#DejaVuSans-97"/>
       <use x="539.298828" xlink:href="#DejaVuSans-116"/>
      </g>
     </g>
    </g>
    <g id="xtick_32">
     <g id="text_32">
      <!-- Kama wheat -->
      <g transform="translate(391.186875 375.926562)rotate(-90)scale(0.06 -0.06)">
       <use xlink:href="#DejaVuSans-75"/>
       <use x="63.826172" xlink:href="#DejaVuSans-97"/>
       <use x="125.105469" xlink:href="#DejaVuSans-109"/>
       <use x="222.517578" xlink:href="#DejaVuSans-97"/>
       <use x="283.796875" xlink:href="#DejaVuSans-32"/>
       <use x="315.583984" xlink:href="#DejaVuSans-119"/>
       <use x="397.371094" xlink:href="#DejaVuSans-104"/>
       <use x="460.75" xlink:href="#DejaVuSans-101"/>
       <use x="522.273438" xlink:href="#DejaVuSans-97"/>
       <use x="583.552734" xlink:href="#DejaVuSans-116"/>
      </g>
     </g>
    </g>
    <g id="xtick_33">
     <g id="text_33">
      <!-- Kama wheat -->
      <g transform="translate(402.583899 375.926562)rotate(-90)scale(0.06 -0.06)">
       <use xlink:href="#DejaVuSans-75"/>
       <use x="63.826172" xlink:href="#DejaVuSans-97"/>
       <use x="125.105469" xlink:href="#DejaVuSans-109"/>
       <use x="222.517578" xlink:href="#DejaVuSans-97"/>
       <use x="283.796875" xlink:href="#DejaVuSans-32"/>
       <use x="315.583984" xlink:href="#DejaVuSans-119"/>
       <use x="397.371094" xlink:href="#DejaVuSans-104"/>
       <use x="460.75" xlink:href="#DejaVuSans-101"/>
       <use x="522.273438" xlink:href="#DejaVuSans-97"/>
       <use x="583.552734" xlink:href="#DejaVuSans-116"/>
      </g>
     </g>
    </g>
    <g id="xtick_34">
     <g id="text_34">
      <!-- Kama wheat -->
      <g transform="translate(413.980923 375.926562)rotate(-90)scale(0.06 -0.06)">
       <use xlink:href="#DejaVuSans-75"/>
       <use x="63.826172" xlink:href="#DejaVuSans-97"/>
       <use x="125.105469" xlink:href="#DejaVuSans-109"/>
       <use x="222.517578" xlink:href="#DejaVuSans-97"/>
       <use x="283.796875" xlink:href="#DejaVuSans-32"/>
       <use x="315.583984" xlink:href="#DejaVuSans-119"/>
       <use x="397.371094" xlink:href="#DejaVuSans-104"/>
       <use x="460.75" xlink:href="#DejaVuSans-101"/>
       <use x="522.273438" xlink:href="#DejaVuSans-97"/>
       <use x="583.552734" xlink:href="#DejaVuSans-116"/>
      </g>
     </g>
    </g>
    <g id="xtick_35">
     <g id="text_35">
      <!-- Kama wheat -->
      <g transform="translate(425.377946 375.926562)rotate(-90)scale(0.06 -0.06)">
       <use xlink:href="#DejaVuSans-75"/>
       <use x="63.826172" xlink:href="#DejaVuSans-97"/>
       <use x="125.105469" xlink:href="#DejaVuSans-109"/>
       <use x="222.517578" xlink:href="#DejaVuSans-97"/>
       <use x="283.796875" xlink:href="#DejaVuSans-32"/>
       <use x="315.583984" xlink:href="#DejaVuSans-119"/>
       <use x="397.371094" xlink:href="#DejaVuSans-104"/>
       <use x="460.75" xlink:href="#DejaVuSans-101"/>
       <use x="522.273438" xlink:href="#DejaVuSans-97"/>
       <use x="583.552734" xlink:href="#DejaVuSans-116"/>
      </g>
     </g>
    </g>
    <g id="xtick_36">
     <g id="text_36">
      <!-- Kama wheat -->
      <g transform="translate(436.77497 375.926562)rotate(-90)scale(0.06 -0.06)">
       <use xlink:href="#DejaVuSans-75"/>
       <use x="63.826172" xlink:href="#DejaVuSans-97"/>
       <use x="125.105469" xlink:href="#DejaVuSans-109"/>
       <use x="222.517578" xlink:href="#DejaVuSans-97"/>
       <use x="283.796875" xlink:href="#DejaVuSans-32"/>
       <use x="315.583984" xlink:href="#DejaVuSans-119"/>
       <use x="397.371094" xlink:href="#DejaVuSans-104"/>
       <use x="460.75" xlink:href="#DejaVuSans-101"/>
       <use x="522.273438" xlink:href="#DejaVuSans-97"/>
       <use x="583.552734" xlink:href="#DejaVuSans-116"/>
      </g>
     </g>
    </g>
    <g id="xtick_37">
     <g id="text_37">
      <!-- Kama wheat -->
      <g transform="translate(448.171994 375.926562)rotate(-90)scale(0.06 -0.06)">
       <use xlink:href="#DejaVuSans-75"/>
       <use x="63.826172" xlink:href="#DejaVuSans-97"/>
       <use x="125.105469" xlink:href="#DejaVuSans-109"/>
       <use x="222.517578" xlink:href="#DejaVuSans-97"/>
       <use x="283.796875" xlink:href="#DejaVuSans-32"/>
       <use x="315.583984" xlink:href="#DejaVuSans-119"/>
       <use x="397.371094" xlink:href="#DejaVuSans-104"/>
       <use x="460.75" xlink:href="#DejaVuSans-101"/>
       <use x="522.273438" xlink:href="#DejaVuSans-97"/>
       <use x="583.552734" xlink:href="#DejaVuSans-116"/>
      </g>
     </g>
    </g>
    <g id="xtick_38">
     <g id="text_38">
      <!-- Kama wheat -->
      <g transform="translate(459.569018 375.926562)rotate(-90)scale(0.06 -0.06)">
       <use xlink:href="#DejaVuSans-75"/>
       <use x="63.826172" xlink:href="#DejaVuSans-97"/>
       <use x="125.105469" xlink:href="#DejaVuSans-109"/>
       <use x="222.517578" xlink:href="#DejaVuSans-97"/>
       <use x="283.796875" xlink:href="#DejaVuSans-32"/>
       <use x="315.583984" xlink:href="#DejaVuSans-119"/>
       <use x="397.371094" xlink:href="#DejaVuSans-104"/>
       <use x="460.75" xlink:href="#DejaVuSans-101"/>
       <use x="522.273438" xlink:href="#DejaVuSans-97"/>
       <use x="583.552734" xlink:href="#DejaVuSans-116"/>
      </g>
     </g>
    </g>
    <g id="xtick_39">
     <g id="text_39">
      <!-- Kama wheat -->
      <g transform="translate(470.966042 375.926562)rotate(-90)scale(0.06 -0.06)">
       <use xlink:href="#DejaVuSans-75"/>
       <use x="63.826172" xlink:href="#DejaVuSans-97"/>
       <use x="125.105469" xlink:href="#DejaVuSans-109"/>
       <use x="222.517578" xlink:href="#DejaVuSans-97"/>
       <use x="283.796875" xlink:href="#DejaVuSans-32"/>
       <use x="315.583984" xlink:href="#DejaVuSans-119"/>
       <use x="397.371094" xlink:href="#DejaVuSans-104"/>
       <use x="460.75" xlink:href="#DejaVuSans-101"/>
       <use x="522.273438" xlink:href="#DejaVuSans-97"/>
       <use x="583.552734" xlink:href="#DejaVuSans-116"/>
      </g>
     </g>
    </g>
    <g id="xtick_40">
     <g id="text_40">
      <!-- Kama wheat -->
      <g transform="translate(482.363065 375.926562)rotate(-90)scale(0.06 -0.06)">
       <use xlink:href="#DejaVuSans-75"/>
       <use x="63.826172" xlink:href="#DejaVuSans-97"/>
       <use x="125.105469" xlink:href="#DejaVuSans-109"/>
       <use x="222.517578" xlink:href="#DejaVuSans-97"/>
       <use x="283.796875" xlink:href="#DejaVuSans-32"/>
       <use x="315.583984" xlink:href="#DejaVuSans-119"/>
       <use x="397.371094" xlink:href="#DejaVuSans-104"/>
       <use x="460.75" xlink:href="#DejaVuSans-101"/>
       <use x="522.273438" xlink:href="#DejaVuSans-97"/>
       <use x="583.552734" xlink:href="#DejaVuSans-116"/>
      </g>
     </g>
    </g>
    <g id="xtick_41">
     <g id="text_41">
      <!-- Kama wheat -->
      <g transform="translate(493.760089 375.926562)rotate(-90)scale(0.06 -0.06)">
       <use xlink:href="#DejaVuSans-75"/>
       <use x="63.826172" xlink:href="#DejaVuSans-97"/>
       <use x="125.105469" xlink:href="#DejaVuSans-109"/>
       <use x="222.517578" xlink:href="#DejaVuSans-97"/>
       <use x="283.796875" xlink:href="#DejaVuSans-32"/>
       <use x="315.583984" xlink:href="#DejaVuSans-119"/>
       <use x="397.371094" xlink:href="#DejaVuSans-104"/>
       <use x="460.75" xlink:href="#DejaVuSans-101"/>
       <use x="522.273438" xlink:href="#DejaVuSans-97"/>
       <use x="583.552734" xlink:href="#DejaVuSans-116"/>
      </g>
     </g>
    </g>
    <g id="xtick_42">
     <g id="text_42">
      <!-- Kama wheat -->
      <g transform="translate(505.157113 375.926562)rotate(-90)scale(0.06 -0.06)">
       <use xlink:href="#DejaVuSans-75"/>
       <use x="63.826172" xlink:href="#DejaVuSans-97"/>
       <use x="125.105469" xlink:href="#DejaVuSans-109"/>
       <use x="222.517578" xlink:href="#DejaVuSans-97"/>
       <use x="283.796875" xlink:href="#DejaVuSans-32"/>
       <use x="315.583984" xlink:href="#DejaVuSans-119"/>
       <use x="397.371094" xlink:href="#DejaVuSans-104"/>
       <use x="460.75" xlink:href="#DejaVuSans-101"/>
       <use x="522.273438" xlink:href="#DejaVuSans-97"/>
       <use x="583.552734" xlink:href="#DejaVuSans-116"/>
      </g>
     </g>
    </g>
   </g>
   <g id="matplotlib.axis_2">
    <g id="ytick_1">
     <g id="line2d_1">
      <defs>
       <path d="M 0 0 
L -3.5 0 
" id="m28e0f52385" style="stroke:#000000;stroke-width:0.8;"/>
      </defs>
      <g>
       <use style="stroke:#000000;stroke-width:0.8;" x="30.525" xlink:href="#m28e0f52385" y="331.561562"/>
      </g>
     </g>
     <g id="text_43">
      <!-- 0 -->
      <defs>
       <path d="M 31.78125 66.40625 
Q 24.171875 66.40625 20.328125 58.90625 
Q 16.5 51.421875 16.5 36.375 
Q 16.5 21.390625 20.328125 13.890625 
Q 24.171875 6.390625 31.78125 6.390625 
Q 39.453125 6.390625 43.28125 13.890625 
Q 47.125 21.390625 47.125 36.375 
Q 47.125 51.421875 43.28125 58.90625 
Q 39.453125 66.40625 31.78125 66.40625 
z
M 31.78125 74.21875 
Q 44.046875 74.21875 50.515625 64.515625 
Q 56.984375 54.828125 56.984375 36.375 
Q 56.984375 17.96875 50.515625 8.265625 
Q 44.046875 -1.421875 31.78125 -1.421875 
Q 19.53125 -1.421875 13.0625 8.265625 
Q 6.59375 17.96875 6.59375 36.375 
Q 6.59375 54.828125 13.0625 64.515625 
Q 19.53125 74.21875 31.78125 74.21875 
z
" id="DejaVuSans-48"/>
      </defs>
      <g transform="translate(17.1625 335.360781)scale(0.1 -0.1)">
       <use xlink:href="#DejaVuSans-48"/>
      </g>
     </g>
    </g>
    <g id="ytick_2">
     <g id="line2d_2">
      <g>
       <use style="stroke:#000000;stroke-width:0.8;" x="30.525" xlink:href="#m28e0f52385" y="268.193626"/>
      </g>
     </g>
     <g id="text_44">
      <!-- 2 -->
      <defs>
       <path d="M 19.1875 8.296875 
L 53.609375 8.296875 
L 53.609375 0 
L 7.328125 0 
L 7.328125 8.296875 
Q 12.9375 14.109375 22.625 23.890625 
Q 32.328125 33.6875 34.8125 36.53125 
Q 39.546875 41.84375 41.421875 45.53125 
Q 43.3125 49.21875 43.3125 52.78125 
Q 43.3125 58.59375 39.234375 62.25 
Q 35.15625 65.921875 28.609375 65.921875 
Q 23.96875 65.921875 18.8125 64.3125 
Q 13.671875 62.703125 7.8125 59.421875 
L 7.8125 69.390625 
Q 13.765625 71.78125 18.9375 73 
Q 24.125 74.21875 28.421875 74.21875 
Q 39.75 74.21875 46.484375 68.546875 
Q 53.21875 62.890625 53.21875 53.421875 
Q 53.21875 48.921875 51.53125 44.890625 
Q 49.859375 40.875 45.40625 35.40625 
Q 44.1875 33.984375 37.640625 27.21875 
Q 31.109375 20.453125 19.1875 8.296875 
z
" id="DejaVuSans-50"/>
      </defs>
      <g transform="translate(17.1625 271.992845)scale(0.1 -0.1)">
       <use xlink:href="#DejaVuSans-50"/>
      </g>
     </g>
    </g>
    <g id="ytick_3">
     <g id="line2d_3">
      <g>
       <use style="stroke:#000000;stroke-width:0.8;" x="30.525" xlink:href="#m28e0f52385" y="204.825689"/>
      </g>
     </g>
     <g id="text_45">
      <!-- 4 -->
      <defs>
       <path d="M 37.796875 64.3125 
L 12.890625 25.390625 
L 37.796875 25.390625 
z
M 35.203125 72.90625 
L 47.609375 72.90625 
L 47.609375 25.390625 
L 58.015625 25.390625 
L 58.015625 17.1875 
L 47.609375 17.1875 
L 47.609375 0 
L 37.796875 0 
L 37.796875 17.1875 
L 4.890625 17.1875 
L 4.890625 26.703125 
z
" id="DejaVuSans-52"/>
      </defs>
      <g transform="translate(17.1625 208.624908)scale(0.1 -0.1)">
       <use xlink:href="#DejaVuSans-52"/>
      </g>
     </g>
    </g>
    <g id="ytick_4">
     <g id="line2d_4">
      <g>
       <use style="stroke:#000000;stroke-width:0.8;" x="30.525" xlink:href="#m28e0f52385" y="141.457753"/>
      </g>
     </g>
     <g id="text_46">
      <!-- 6 -->
      <defs>
       <path d="M 33.015625 40.375 
Q 26.375 40.375 22.484375 35.828125 
Q 18.609375 31.296875 18.609375 23.390625 
Q 18.609375 15.53125 22.484375 10.953125 
Q 26.375 6.390625 33.015625 6.390625 
Q 39.65625 6.390625 43.53125 10.953125 
Q 47.40625 15.53125 47.40625 23.390625 
Q 47.40625 31.296875 43.53125 35.828125 
Q 39.65625 40.375 33.015625 40.375 
z
M 52.59375 71.296875 
L 52.59375 62.3125 
Q 48.875 64.0625 45.09375 64.984375 
Q 41.3125 65.921875 37.59375 65.921875 
Q 27.828125 65.921875 22.671875 59.328125 
Q 17.53125 52.734375 16.796875 39.40625 
Q 19.671875 43.65625 24.015625 45.921875 
Q 28.375 48.1875 33.59375 48.1875 
Q 44.578125 48.1875 50.953125 41.515625 
Q 57.328125 34.859375 57.328125 23.390625 
Q 57.328125 12.15625 50.6875 5.359375 
Q 44.046875 -1.421875 33.015625 -1.421875 
Q 20.359375 -1.421875 13.671875 8.265625 
Q 6.984375 17.96875 6.984375 36.375 
Q 6.984375 53.65625 15.1875 63.9375 
Q 23.390625 74.21875 37.203125 74.21875 
Q 40.921875 74.21875 44.703125 73.484375 
Q 48.484375 72.75 52.59375 71.296875 
z
" id="DejaVuSans-54"/>
      </defs>
      <g transform="translate(17.1625 145.256971)scale(0.1 -0.1)">
       <use xlink:href="#DejaVuSans-54"/>
      </g>
     </g>
    </g>
    <g id="ytick_5">
     <g id="line2d_5">
      <g>
       <use style="stroke:#000000;stroke-width:0.8;" x="30.525" xlink:href="#m28e0f52385" y="78.089816"/>
      </g>
     </g>
     <g id="text_47">
      <!-- 8 -->
      <defs>
       <path d="M 31.78125 34.625 
Q 24.75 34.625 20.71875 30.859375 
Q 16.703125 27.09375 16.703125 20.515625 
Q 16.703125 13.921875 20.71875 10.15625 
Q 24.75 6.390625 31.78125 6.390625 
Q 38.8125 6.390625 42.859375 10.171875 
Q 46.921875 13.96875 46.921875 20.515625 
Q 46.921875 27.09375 42.890625 30.859375 
Q 38.875 34.625 31.78125 34.625 
z
M 21.921875 38.8125 
Q 15.578125 40.375 12.03125 44.71875 
Q 8.5 49.078125 8.5 55.328125 
Q 8.5 64.0625 14.71875 69.140625 
Q 20.953125 74.21875 31.78125 74.21875 
Q 42.671875 74.21875 48.875 69.140625 
Q 55.078125 64.0625 55.078125 55.328125 
Q 55.078125 49.078125 51.53125 44.71875 
Q 48 40.375 41.703125 38.8125 
Q 48.828125 37.15625 52.796875 32.3125 
Q 56.78125 27.484375 56.78125 20.515625 
Q 56.78125 9.90625 50.3125 4.234375 
Q 43.84375 -1.421875 31.78125 -1.421875 
Q 19.734375 -1.421875 13.25 4.234375 
Q 6.78125 9.90625 6.78125 20.515625 
Q 6.78125 27.484375 10.78125 32.3125 
Q 14.796875 37.15625 21.921875 38.8125 
z
M 18.3125 54.390625 
Q 18.3125 48.734375 21.84375 45.5625 
Q 25.390625 42.390625 31.78125 42.390625 
Q 38.140625 42.390625 41.71875 45.5625 
Q 45.3125 48.734375 45.3125 54.390625 
Q 45.3125 60.0625 41.71875 63.234375 
Q 38.140625 66.40625 31.78125 66.40625 
Q 25.390625 66.40625 21.84375 63.234375 
Q 18.3125 60.0625 18.3125 54.390625 
z
" id="DejaVuSans-56"/>
      </defs>
      <g transform="translate(17.1625 81.889035)scale(0.1 -0.1)">
       <use xlink:href="#DejaVuSans-56"/>
      </g>
     </g>
    </g>
    <g id="ytick_6">
     <g id="line2d_6">
      <g>
       <use style="stroke:#000000;stroke-width:0.8;" x="30.525" xlink:href="#m28e0f52385" y="14.721879"/>
      </g>
     </g>
     <g id="text_48">
      <!-- 10 -->
      <defs>
       <path d="M 12.40625 8.296875 
L 28.515625 8.296875 
L 28.515625 63.921875 
L 10.984375 60.40625 
L 10.984375 69.390625 
L 28.421875 72.90625 
L 38.28125 72.90625 
L 38.28125 8.296875 
L 54.390625 8.296875 
L 54.390625 0 
L 12.40625 0 
z
" id="DejaVuSans-49"/>
      </defs>
      <g transform="translate(10.8 18.521098)scale(0.1 -0.1)">
       <use xlink:href="#DejaVuSans-49"/>
       <use x="63.623047" xlink:href="#DejaVuSans-48"/>
      </g>
     </g>
    </g>
   </g>
   <g id="LineCollection_1">
    <path clip-path="url(#p66ffe875b9)" d="M 47.620536 331.561562 
L 47.620536 322.955275 
L 59.01756 322.955275 
L 59.01756 331.561562 
" style="fill:none;stroke:#008000;stroke-width:1.5;"/>
    <path clip-path="url(#p66ffe875b9)" d="M 36.223512 331.561562 
L 36.223512 307.627082 
L 53.319048 307.627082 
L 53.319048 322.955275 
" style="fill:none;stroke:#008000;stroke-width:1.5;"/>
    <path clip-path="url(#p66ffe875b9)" d="M 81.811607 331.561562 
L 81.811607 309.902604 
L 93.208631 309.902604 
L 93.208631 331.561562 
" style="fill:none;stroke:#008000;stroke-width:1.5;"/>
    <path clip-path="url(#p66ffe875b9)" d="M 70.414583 331.561562 
L 70.414583 287.935752 
L 87.510119 287.935752 
L 87.510119 309.902604 
" style="fill:none;stroke:#008000;stroke-width:1.5;"/>
    <path clip-path="url(#p66ffe875b9)" d="M 44.77128 307.627082 
L 44.77128 278.802307 
L 78.962351 278.802307 
L 78.962351 287.935752 
" style="fill:none;stroke:#008000;stroke-width:1.5;"/>
    <path clip-path="url(#p66ffe875b9)" d="M 116.002679 331.561562 
L 116.002679 306.510093 
L 127.399702 306.510093 
L 127.399702 331.561562 
" style="fill:none;stroke:#008000;stroke-width:1.5;"/>
    <path clip-path="url(#p66ffe875b9)" d="M 104.605655 331.561562 
L 104.605655 265.348393 
L 121.70119 265.348393 
L 121.70119 306.510093 
" style="fill:none;stroke:#008000;stroke-width:1.5;"/>
    <path clip-path="url(#p66ffe875b9)" d="M 61.866815 278.802307 
L 61.866815 232.248665 
L 113.153423 232.248665 
L 113.153423 265.348393 
" style="fill:none;stroke:#008000;stroke-width:1.5;"/>
    <path clip-path="url(#p66ffe875b9)" d="M 150.19375 331.561562 
L 150.19375 295.526202 
L 161.590774 295.526202 
L 161.590774 331.561562 
" style="fill:none;stroke:#008000;stroke-width:1.5;"/>
    <path clip-path="url(#p66ffe875b9)" d="M 138.796726 331.561562 
L 138.796726 290.791793 
L 155.892262 290.791793 
L 155.892262 295.526202 
" style="fill:none;stroke:#008000;stroke-width:1.5;"/>
    <path clip-path="url(#p66ffe875b9)" d="M 172.987798 331.561562 
L 172.987798 307.440691 
L 184.384821 307.440691 
L 184.384821 331.561562 
" style="fill:none;stroke:#008000;stroke-width:1.5;"/>
    <path clip-path="url(#p66ffe875b9)" d="M 207.178869 331.561562 
L 207.178869 320.580746 
L 218.575893 320.580746 
L 218.575893 331.561562 
" style="fill:none;stroke:#008000;stroke-width:1.5;"/>
    <path clip-path="url(#p66ffe875b9)" d="M 195.781845 331.561562 
L 195.781845 300.208179 
L 212.877381 300.208179 
L 212.877381 320.580746 
" style="fill:none;stroke:#008000;stroke-width:1.5;"/>
    <path clip-path="url(#p66ffe875b9)" d="M 178.68631 307.440691 
L 178.68631 263.952556 
L 204.329613 263.952556 
L 204.329613 300.208179 
" style="fill:none;stroke:#008000;stroke-width:1.5;"/>
    <path clip-path="url(#p66ffe875b9)" d="M 147.344494 290.791793 
L 147.344494 228.35273 
L 191.507961 228.35273 
L 191.507961 263.952556 
" style="fill:none;stroke:#008000;stroke-width:1.5;"/>
    <path clip-path="url(#p66ffe875b9)" d="M 87.510119 232.248665 
L 87.510119 158.63385 
L 169.426228 158.63385 
L 169.426228 228.35273 
" style="fill:none;stroke:#008000;stroke-width:1.5;"/>
   </g>
   <g id="LineCollection_2">
    <path clip-path="url(#p66ffe875b9)" d="M 241.36994 331.561562 
L 241.36994 311.14188 
L 252.766964 311.14188 
L 252.766964 331.561562 
" style="fill:none;stroke:#ff0000;stroke-width:1.5;"/>
    <path clip-path="url(#p66ffe875b9)" d="M 229.972917 331.561562 
L 229.972917 298.010852 
L 247.068452 298.010852 
L 247.068452 311.14188 
" style="fill:none;stroke:#ff0000;stroke-width:1.5;"/>
    <path clip-path="url(#p66ffe875b9)" d="M 286.958036 331.561562 
L 286.958036 319.231126 
L 298.35506 319.231126 
L 298.35506 331.561562 
" style="fill:none;stroke:#ff0000;stroke-width:1.5;"/>
    <path clip-path="url(#p66ffe875b9)" d="M 275.561012 331.561562 
L 275.561012 303.35802 
L 292.656548 303.35802 
L 292.656548 319.231126 
" style="fill:none;stroke:#ff0000;stroke-width:1.5;"/>
    <path clip-path="url(#p66ffe875b9)" d="M 264.163988 331.561562 
L 264.163988 276.357069 
L 284.10878 276.357069 
L 284.10878 303.35802 
" style="fill:none;stroke:#ff0000;stroke-width:1.5;"/>
    <path clip-path="url(#p66ffe875b9)" d="M 238.520685 298.010852 
L 238.520685 258.101569 
L 274.136384 258.101569 
L 274.136384 276.357069 
" style="fill:none;stroke:#ff0000;stroke-width:1.5;"/>
    <path clip-path="url(#p66ffe875b9)" d="M 309.752083 331.561562 
L 309.752083 296.220282 
L 321.149107 296.220282 
L 321.149107 331.561562 
" style="fill:none;stroke:#ff0000;stroke-width:1.5;"/>
    <path clip-path="url(#p66ffe875b9)" d="M 343.943155 331.561562 
L 343.943155 321.623652 
L 355.340179 321.623652 
L 355.340179 331.561562 
" style="fill:none;stroke:#ff0000;stroke-width:1.5;"/>
    <path clip-path="url(#p66ffe875b9)" d="M 332.546131 331.561562 
L 332.546131 321.15446 
L 349.641667 321.15446 
L 349.641667 321.623652 
" style="fill:none;stroke:#ff0000;stroke-width:1.5;"/>
    <path clip-path="url(#p66ffe875b9)" d="M 366.737202 331.561562 
L 366.737202 319.764527 
L 378.134226 319.764527 
L 378.134226 331.561562 
" style="fill:none;stroke:#ff0000;stroke-width:1.5;"/>
    <path clip-path="url(#p66ffe875b9)" d="M 341.093899 321.15446 
L 341.093899 294.611589 
L 372.435714 294.611589 
L 372.435714 319.764527 
" style="fill:none;stroke:#ff0000;stroke-width:1.5;"/>
    <path clip-path="url(#p66ffe875b9)" d="M 315.450595 296.220282 
L 315.450595 257.520503 
L 356.764807 257.520503 
L 356.764807 294.611589 
" style="fill:none;stroke:#ff0000;stroke-width:1.5;"/>
    <path clip-path="url(#p66ffe875b9)" d="M 256.328534 258.101569 
L 256.328534 213.830173 
L 336.107701 213.830173 
L 336.107701 257.520503 
" style="fill:none;stroke:#ff0000;stroke-width:1.5;"/>
   </g>
   <g id="LineCollection_3">
    <path clip-path="url(#p66ffe875b9)" d="M 389.53125 331.561562 
L 389.53125 261.163892 
L 400.928274 261.163892 
L 400.928274 331.561562 
" style="fill:none;stroke:#00bfbf;stroke-width:1.5;"/>
    <path clip-path="url(#p66ffe875b9)" d="M 412.325298 331.561562 
L 412.325298 310.437335 
L 423.722321 310.437335 
L 423.722321 331.561562 
" style="fill:none;stroke:#00bfbf;stroke-width:1.5;"/>
    <path clip-path="url(#p66ffe875b9)" d="M 435.119345 331.561562 
L 435.119345 316.18853 
L 446.516369 316.18853 
L 446.516369 331.561562 
" style="fill:none;stroke:#00bfbf;stroke-width:1.5;"/>
    <path clip-path="url(#p66ffe875b9)" d="M 457.913393 331.561562 
L 457.913393 312.481315 
L 469.310417 312.481315 
L 469.310417 331.561562 
" style="fill:none;stroke:#00bfbf;stroke-width:1.5;"/>
    <path clip-path="url(#p66ffe875b9)" d="M 440.817857 316.18853 
L 440.817857 283.127825 
L 463.611905 283.127825 
L 463.611905 312.481315 
" style="fill:none;stroke:#00bfbf;stroke-width:1.5;"/>
    <path clip-path="url(#p66ffe875b9)" d="M 418.02381 310.437335 
L 418.02381 271.040296 
L 452.214881 271.040296 
L 452.214881 283.127825 
" style="fill:none;stroke:#00bfbf;stroke-width:1.5;"/>
    <path clip-path="url(#p66ffe875b9)" d="M 492.104464 331.561562 
L 492.104464 301.120321 
L 503.501488 301.120321 
L 503.501488 331.561562 
" style="fill:none;stroke:#00bfbf;stroke-width:1.5;"/>
    <path clip-path="url(#p66ffe875b9)" d="M 480.70744 331.561562 
L 480.70744 270.807859 
L 497.802976 270.807859 
L 497.802976 301.120321 
" style="fill:none;stroke:#00bfbf;stroke-width:1.5;"/>
    <path clip-path="url(#p66ffe875b9)" d="M 435.119345 271.040296 
L 435.119345 243.866981 
L 489.255208 243.866981 
L 489.255208 270.807859 
" style="fill:none;stroke:#00bfbf;stroke-width:1.5;"/>
    <path clip-path="url(#p66ffe875b9)" d="M 395.229762 261.163892 
L 395.229762 183.243524 
L 462.187277 183.243524 
L 462.187277 243.866981 
" style="fill:none;stroke:#00bfbf;stroke-width:1.5;"/>
   </g>
   <g id="LineCollection_4">
    <path clip-path="url(#p66ffe875b9)" d="M 296.218118 213.830173 
L 296.218118 117.818842 
L 428.708519 117.818842 
L 428.708519 183.243524 
" style="fill:none;stroke:#0000ff;stroke-width:1.5;"/>
    <path clip-path="url(#p66ffe875b9)" d="M 128.468173 158.63385 
L 128.468173 27.005679 
L 362.463318 27.005679 
L 362.463318 117.818842 
" style="fill:none;stroke:#0000ff;stroke-width:1.5;"/>
   </g>
   <g id="patch_3">
    <path d="M 30.525 331.561562 
L 30.525 11.777884 
" style="fill:none;stroke:#000000;stroke-linecap:square;stroke-linejoin:miter;stroke-width:0.8;"/>
   </g>
   <g id="patch_4">
    <path d="M 509.2 331.561562 
L 509.2 11.777884 
" style="fill:none;stroke:#000000;stroke-linecap:square;stroke-linejoin:miter;stroke-width:0.8;"/>
   </g>
   <g id="patch_5">
    <path d="M 30.525 331.561562 
L 509.2 331.561562 
" style="fill:none;stroke:#000000;stroke-linecap:square;stroke-linejoin:miter;stroke-width:0.8;"/>
   </g>
   <g id="patch_6">
    <path d="M 30.525 11.777884 
L 509.2 11.777884 
" style="fill:none;stroke:#000000;stroke-linecap:square;stroke-linejoin:miter;stroke-width:0.8;"/>
   </g>
  </g>
 </g>
 <defs>
  <clipPath id="p66ffe875b9">
   <rect height="319.783678" width="478.675" x="30.525" y="11.777884"/>
  </clipPath>
 </defs>
</svg>
